<mxfile host="app.diagrams.net" agent="Mozilla/5.0 (Windows NT 10.0; Win64; x64) AppleWebKit/537.36 (KHTML, like Gecko) Chrome/141.0.0.0 Safari/537.36 Edg/141.0.0.0" version="28.2.5">
  <diagram name="Página-1" id="xG30Vdf-161_1HfZHNo8">
    <mxGraphModel dx="1418" dy="820" grid="1" gridSize="10" guides="1" tooltips="1" connect="1" arrows="1" fold="1" page="1" pageScale="1" pageWidth="827" pageHeight="1169" math="0" shadow="0">
      <root>
        <mxCell id="0" />
        <mxCell id="1" parent="0" />
        <mxCell id="3juwo7l-BFL0aMfqjxcw-1" value="Fim" style="ellipse;whiteSpace=wrap;html=1;" vertex="1" parent="1">
          <mxGeometry x="350" y="650" width="120" height="80" as="geometry" />
        </mxCell>
        <mxCell id="3juwo7l-BFL0aMfqjxcw-4" value="" style="edgeStyle=orthogonalEdgeStyle;rounded=0;orthogonalLoop=1;jettySize=auto;html=1;" edge="1" parent="1" source="3juwo7l-BFL0aMfqjxcw-2" target="3juwo7l-BFL0aMfqjxcw-3">
          <mxGeometry relative="1" as="geometry" />
        </mxCell>
        <mxCell id="3juwo7l-BFL0aMfqjxcw-2" value="Ínicio" style="ellipse;whiteSpace=wrap;html=1;" vertex="1" parent="1">
          <mxGeometry x="350" width="120" height="80" as="geometry" />
        </mxCell>
        <mxCell id="3juwo7l-BFL0aMfqjxcw-6" value="" style="edgeStyle=orthogonalEdgeStyle;rounded=0;orthogonalLoop=1;jettySize=auto;html=1;" edge="1" parent="1" source="3juwo7l-BFL0aMfqjxcw-3" target="3juwo7l-BFL0aMfqjxcw-5">
          <mxGeometry relative="1" as="geometry" />
        </mxCell>
        <mxCell id="3juwo7l-BFL0aMfqjxcw-3" value="Sandes = 1&lt;div&gt;Bolos = 0.8&lt;/div&gt;&lt;div&gt;Refrigerantes = 1.5&lt;/div&gt;&lt;div&gt;Café = 0.6&lt;/div&gt;" style="whiteSpace=wrap;html=1;" vertex="1" parent="1">
          <mxGeometry x="350" y="130" width="120" height="60" as="geometry" />
        </mxCell>
        <mxCell id="3juwo7l-BFL0aMfqjxcw-12" value="" style="edgeStyle=orthogonalEdgeStyle;rounded=0;orthogonalLoop=1;jettySize=auto;html=1;" edge="1" parent="1" source="3juwo7l-BFL0aMfqjxcw-5" target="3juwo7l-BFL0aMfqjxcw-11">
          <mxGeometry relative="1" as="geometry" />
        </mxCell>
        <mxCell id="3juwo7l-BFL0aMfqjxcw-5" value="&lt;div&gt;Ler Quantiade&lt;/div&gt;&lt;div&gt;Ler PreçoPublico&lt;/div&gt;" style="shape=parallelogram;perimeter=parallelogramPerimeter;whiteSpace=wrap;html=1;fixedSize=1;" vertex="1" parent="1">
          <mxGeometry x="322.5" y="260" width="175" height="80" as="geometry" />
        </mxCell>
        <mxCell id="3juwo7l-BFL0aMfqjxcw-10" value="" style="edgeStyle=orthogonalEdgeStyle;rounded=0;orthogonalLoop=1;jettySize=auto;html=1;" edge="1" parent="1" source="3juwo7l-BFL0aMfqjxcw-9" target="3juwo7l-BFL0aMfqjxcw-1">
          <mxGeometry relative="1" as="geometry" />
        </mxCell>
        <mxCell id="3juwo7l-BFL0aMfqjxcw-9" value="Escrever Lucro" style="shape=parallelogram;perimeter=parallelogramPerimeter;whiteSpace=wrap;html=1;fixedSize=1;" vertex="1" parent="1">
          <mxGeometry x="350" y="540" width="120" height="60" as="geometry" />
        </mxCell>
        <mxCell id="3juwo7l-BFL0aMfqjxcw-13" value="" style="edgeStyle=orthogonalEdgeStyle;rounded=0;orthogonalLoop=1;jettySize=auto;html=1;" edge="1" parent="1" source="3juwo7l-BFL0aMfqjxcw-11" target="3juwo7l-BFL0aMfqjxcw-9">
          <mxGeometry relative="1" as="geometry" />
        </mxCell>
        <mxCell id="3juwo7l-BFL0aMfqjxcw-11" value="Lucro = (PBSandes - Sandes) * QuantidadeSandes + (PBBolos - Bolos) * QuantidadeBolos + (PBRefrigerantes - Refrigerantes) * QuantidadeRefrigerantes + (PBCafé - Café) * QuantidadeCafé" style="whiteSpace=wrap;html=1;" vertex="1" parent="1">
          <mxGeometry x="281" y="410" width="260" height="90" as="geometry" />
        </mxCell>
      </root>
    </mxGraphModel>
  </diagram>
</mxfile>
